<?xml version="1.0" encoding="iso-8859-1"?>
<!-- Generator: Adobe Illustrator 21.0.0, SVG Export Plug-In . SVG Version: 6.00 Build 0)  -->
<svg version="1.1" xmlns="http://www.w3.org/2000/svg" xmlns:xlink="http://www.w3.org/1999/xlink" x="0px" y="0px" width="2800px"
	 height="2800px" viewBox="0 0 2800 2800" enable-background="new 0 0 2800 2800" xml:space="preserve">
<g id="BACKGROUND">
	<g>
		<rect fill="#FFFFFF" width="2800" height="2800"/>
	</g>
	<linearGradient id="SVGID_1_" gradientUnits="userSpaceOnUse" x1="843.6498" y1="787.616" x2="2327.1575" y2="2271.1235">
		<stop  offset="0" style="stop-color:#A6228E"/>
		<stop  offset="0.2589" style="stop-color:#7B1979"/>
		<stop  offset="1" style="stop-color:#03003E"/>
	</linearGradient>
	<path fill="url(#SVGID_1_)" stroke="#FF0000" stroke-miterlimit="10" d="M2089.2,137.9c-405.9-27.5-395.4,408.8-1169.2,768.2
		c-612.8,284.6-861.3,613.6-763,1050.6c181,803.8,1818.2,1032.8,2324.2,97.2C2901.6,1276.5,2522.5,167.3,2089.2,137.9z"/>
</g>
<g id="OBJECTS">
	<g>
		<linearGradient id="SVGID_2_" gradientUnits="userSpaceOnUse" x1="2036.1677" y1="3322.135" x2="763.8323" y2="2049.7996">
			<stop  offset="0" style="stop-color:#FFDFB4"/>
			<stop  offset="0.2048" style="stop-color:#FED6AD"/>
			<stop  offset="0.5387" style="stop-color:#FBBE99"/>
			<stop  offset="0.9581" style="stop-color:#F79679"/>
			<stop  offset="1" style="stop-color:#F69275"/>
		</linearGradient>
		<path fill="url(#SVGID_2_)" d="M2436.2,2454.8c-113.4-183.3-816.6-192.2-816.6-380.7c0-80.3,0-348.9,0-348.9H1400h-219.6
			c0,0,0,268.6,0,348.9c0,188.5-703.2,197.4-816.6,380.7c-63,101.8-122.1,345.2-122.1,345.2H1400h1158.3
			C2558.3,2800,2499.2,2556.6,2436.2,2454.8z"/>
		<g>
			<linearGradient id="SVGID_3_" gradientUnits="userSpaceOnUse" x1="763.8323" y1="2049.7996" x2="2036.1677" y2="3322.135">
				<stop  offset="0" style="stop-color:#00BFFF"/>
				<stop  offset="1" style="stop-color:#9136D9"/>
			</linearGradient>
			<path fill="url(#SVGID_3_)" d="M2436.2,2454.8c-82.2-132.9-474.2-174.1-683.8-258.5c-29.3,168.2-175.9,296-352.5,296
				c-176.5,0-323.2-127.9-352.5-296C838,2280.7,446,2321.9,363.8,2454.8c-63,101.8-122.1,345.2-122.1,345.2H1400h1158.3
				C2558.3,2800,2499.2,2556.6,2436.2,2454.8z"/>
		</g>
		<linearGradient id="XMLID_2_" gradientUnits="userSpaceOnUse" x1="911.4716" y1="727.2407" x2="1888.5284" y2="1704.2976">
			<stop  offset="0" style="stop-color:#FFDFB4"/>
			<stop  offset="0.2048" style="stop-color:#FED6AD"/>
			<stop  offset="0.5387" style="stop-color:#FBBE99"/>
			<stop  offset="0.9581" style="stop-color:#F79679"/>
			<stop  offset="1" style="stop-color:#F69275"/>
		</linearGradient>
		<path id="XMLID_45_" fill="url(#XMLID_2_)" d="M1994.4,1236.8c-18-5.8-36.7-6.8-55.1-3.8V903.8c0-221-241.5-381.1-539.3-381.1
			c-297.9,0-539.3,160.1-539.3,381.1V1233c-18.4-3-37-2-55.1,3.8c-74.7,24.1-110.7,120.1-80.3,214.6
			c25.2,78.1,87.9,130.6,151.1,132.8c53.9,194.3,235.8,315.8,370.2,382.1c96.8,47.7,210,47.7,306.7,0
			c134.4-66.3,316.2-187.9,370.2-382.1v0c63.2-2.2,126-54.6,151.1-132.8C2105.1,1356.9,2069.1,1260.9,1994.4,1236.8z"/>
		<g>
			<g>
				<linearGradient id="SVGID_4_" gradientUnits="userSpaceOnUse" x1="1048.8169" y1="1112.4792" x2="1270.0408" y2="1112.4792">
					<stop  offset="0" style="stop-color:#2D404E"/>
					<stop  offset="1" style="stop-color:#100C1A"/>
				</linearGradient>
				<path fill="url(#SVGID_4_)" d="M1147.9,1078.7c-41.3,9.6-79.3,35.9-99.1,72.3c17.4-11.2,33.9-21.6,51.3-29.8
					c17.3-8.2,35.2-14.3,53.5-18.6c18.4-4.3,37.2-7,56.6-8.4c19.4-1.4,39.2-1.6,59.8-2.6c-18.6-9.1-38.7-14.4-59.4-16.6
					C1189.9,1072.9,1168.6,1073.7,1147.9,1078.7z"/>
				<linearGradient id="SVGID_5_" gradientUnits="userSpaceOnUse" x1="1529.9592" y1="1112.4792" x2="1751.1831" y2="1112.4792">
					<stop  offset="0" style="stop-color:#2D404E"/>
					<stop  offset="1" style="stop-color:#100C1A"/>
				</linearGradient>
				<path fill="url(#SVGID_5_)" d="M1652.1,1078.7c-20.7-5-42-5.8-62.7-3.6c-20.7,2.2-40.8,7.6-59.4,16.6c20.7,1,40.4,1.2,59.8,2.6
					c19.4,1.4,38.3,4.1,56.6,8.4c18.3,4.4,36.2,10.4,53.5,18.6c17.3,8.2,33.9,18.5,51.3,29.8
					C1731.4,1114.6,1693.4,1088.4,1652.1,1078.7z"/>
			</g>
			<g>
				<linearGradient id="SVGID_6_" gradientUnits="userSpaceOnUse" x1="1068.8761" y1="1279.0024" x2="1277.6432" y2="1279.0024">
					<stop  offset="0" style="stop-color:#2D404E"/>
					<stop  offset="1" style="stop-color:#100C1A"/>
				</linearGradient>
				<path fill="url(#SVGID_6_)" d="M1245.8,1259.4c-19.6-16.8-46.1-26.3-72.5-26.1c-26.4-0.1-52.9,9.5-72.5,26.2
					c-19.5,16.7-32.5,40.4-31.9,65.2c21.5-11.8,39.2-19,56.2-23.5c16.9-4.5,32.4-6.3,48.2-6.3c15.8,0.1,31.3,1.9,48.2,6.4
					c17,4.5,34.6,11.7,56.2,23.5C1278.3,1299.9,1265.3,1276.1,1245.8,1259.4z"/>
				<linearGradient id="SVGID_7_" gradientUnits="userSpaceOnUse" x1="1522.3568" y1="1279.0024" x2="1731.1238" y2="1279.0024">
					<stop  offset="0" style="stop-color:#2D404E"/>
					<stop  offset="1" style="stop-color:#100C1A"/>
				</linearGradient>
				<path fill="url(#SVGID_7_)" d="M1699.3,1259.4c-19.6-16.8-46.1-26.3-72.5-26.1c-26.4-0.1-52.9,9.5-72.5,26.2
					c-19.5,16.7-32.5,40.4-31.9,65.2c21.5-11.8,39.2-19,56.2-23.5c16.9-4.5,32.4-6.3,48.2-6.3c15.8,0.1,31.3,1.9,48.2,6.4
					c17,4.5,34.6,11.7,56.2,23.5C1731.8,1299.9,1718.7,1276.1,1699.3,1259.4z"/>
			</g>
		</g>
		<linearGradient id="SVGID_8_" gradientUnits="userSpaceOnUse" x1="1389.7556" y1="523.7843" x2="2019.1398" y2="1153.1685">
			<stop  offset="0" style="stop-color:#100C1A"/>
			<stop  offset="1" style="stop-color:#2D404E"/>
		</linearGradient>
		<path fill="url(#SVGID_8_)" d="M1400,513.5C1400,513.5,1400,513.5,1400,513.5c297.9,0,539.3,169.2,539.3,390.2V1233h0
			c-22,3.6-43.5,13.1-63,27.4c0-257.9-58.1-306.2-142.2-429.6c-81.5,0-205.6,0.8-334.2,1.7V513.5z"/>
		<g id="XMLID_17_" opacity="0.1">
			<path id="XMLID_44_" d="M887.8,1359.3c-36.7-34.3-85.8-41.5-109.6-16c-23.8,25.5-13.4,74,23.4,108.3c4.8,4.4,9.7,8.4,14.8,11.9
				c9,6.2,21.1-2.9,17.1-13.1c-8.6-22-7.1-44,6.1-58.1c9.7-10.3,24-14.7,39.8-13.5c10.5,0.8,16.4-12.1,8.8-19.3
				C887.9,1359.5,887.8,1359.4,887.8,1359.3z"/>
			<path id="XMLID_43_" d="M2021.9,1343.4c-23.8-25.5-72.9-18.4-109.6,16c-0.1,0.1-0.2,0.2-0.3,0.3c-7.7,7.2-1.7,20.1,8.8,19.3
				c15.8-1.2,30.1,3.2,39.8,13.5c13.2,14.1,14.6,36.1,6.1,58.1c-4,10.2,8.1,19.3,17.1,13.1c5.1-3.5,10.1-7.5,14.8-11.9
				C2035.2,1417.3,2045.7,1368.9,2021.9,1343.4z"/>
		</g>
		<g>
			<linearGradient id="XMLID_3_" gradientUnits="userSpaceOnUse" x1="1290.9508" y1="1562.7036" x2="1509.0492" y2="1780.802">
				<stop  offset="0" style="stop-color:#2D404E"/>
				<stop  offset="1" style="stop-color:#100C1A"/>
			</linearGradient>
			<path id="XMLID_13_" fill="url(#XMLID_3_)" d="M1241.8,1623.5c-16.9,0-30.3,15.1-27.5,31.8c15.1,88.9,92.5,156.6,185.7,156.6
				c93.2,0,170.6-67.7,185.7-156.6c2.8-16.7-10.6-31.8-27.5-31.8H1241.8z"/>
			<linearGradient id="SVGID_9_" gradientUnits="userSpaceOnUse" x1="1310.7463" y1="1622.0558" x2="1489.254" y2="1800.5634">
				<stop  offset="0" style="stop-color:#FF009D"/>
				<stop  offset="1" style="stop-color:#9C1242"/>
			</linearGradient>
			<path fill="url(#SVGID_9_)" d="M1570.6,1703.4c-52.6-21.6-110.2-33.6-170.6-33.6c-60.4,0-118,12-170.6,33.6
				c30.1,64.1,95.1,108.4,170.6,108.4C1475.5,1811.8,1540.5,1767.4,1570.6,1703.4z"/>
		</g>
		<linearGradient id="SVGID_10_" gradientUnits="userSpaceOnUse" x1="1089.3856" y1="484.5745" x2="1730.2606" y2="1125.4495">
			<stop  offset="0" style="stop-color:#2D404E"/>
			<stop  offset="1" style="stop-color:#100C1A"/>
		</linearGradient>
		<path fill="url(#SVGID_10_)" d="M1400,503.5C1400,503.5,1400,503.5,1400,503.5h-181.3c-197.8,0-358.1,160.3-358.1,358.1V980h0v253
			h0c22,3.6,43.5,13.1,63,27.4c0-140.1,17.1-218.4,46.3-280.4h757.5c197.8,0,358.1-160.3,358.1-358.1V503.5H1400z"/>
		<linearGradient id="SVGID_11_" gradientUnits="userSpaceOnUse" x1="1160.8499" y1="1082.8717" x2="1639.1504" y2="1561.1722">
			<stop  offset="0" style="stop-color:#FF009D"/>
			<stop  offset="1" style="stop-color:#9C1242"/>
		</linearGradient>
		<path fill="url(#SVGID_11_)" d="M1626.7,1144.1c-92.5,0-168.8,71-177.2,161.3c-33-10.9-66.2-10.9-99.1,0
			c-8.4-90.4-84.7-161.3-177.2-161.3c-98.1,0-178,79.8-178,178c0,98.1,79.8,178,178,178c95.5,0,173.6-75.6,177.8-170.1
			c32.9-12.7,65-12.7,97.9,0c4.1,94.5,82.3,170.1,177.8,170.1c98.1,0,178-79.8,178-178C1804.7,1223.9,1724.9,1144.1,1626.7,1144.1z
			 M1173.3,1476.7c-85.3,0-154.7-69.4-154.7-154.7s69.4-154.7,154.7-154.7s154.7,69.4,154.7,154.7S1258.6,1476.7,1173.3,1476.7z
			 M1626.7,1476.7c-85.3,0-154.7-69.4-154.7-154.7s69.4-154.7,154.7-154.7s154.7,69.4,154.7,154.7S1712,1476.7,1626.7,1476.7z"/>
	</g>
</g>
</svg>
