<?xml version="1.0" standalone="no"?>
<!DOCTYPE svg PUBLIC "-//W3C//DTD SVG 20010904//EN"
 "http://www.w3.org/TR/2001/REC-SVG-20010904/DTD/svg10.dtd">
<svg version="1.0" xmlns="http://www.w3.org/2000/svg"
 width="142.000000pt" height="142.000000pt" viewBox="0 0 142.000000 142.000000"
 preserveAspectRatio="xMidYMid meet">
<metadata>
Created by potrace 1.14, written by Peter Selinger 2001-2017
</metadata>
<g transform="translate(0.000000,142.000000) scale(0.100000,-0.100000)"
fill="#000000" stroke="none">
<path d="M285 940 c-49 -32 -165 -172 -165 -199 0 -6 9 -15 19 -21 17 -8 25
-3 57 43 44 61 61 77 86 77 26 0 32 -40 15 -96 -12 -41 -94 -246 -127 -319 -5
-11 -23 -55 -41 -98 -29 -73 -30 -79 -15 -96 18 -20 59 -32 74 -22 14 9 36 56
82 170 48 120 91 209 133 271 108 161 233 248 277 195 32 -39 10 -130 -97
-404 l-76 -194 23 -19 c20 -16 72 -20 85 -6 2 2 32 76 68 165 76 191 110 251
196 345 75 81 124 115 179 124 53 8 82 -8 82 -46 0 -26 -37 -132 -75 -215 -41
-89 -115 -285 -120 -316 -8 -49 20 -74 69 -65 76 14 300 189 294 230 -5 37
-34 28 -101 -33 -72 -65 -102 -85 -116 -76 -13 7 -4 35 72 215 36 85 72 177
81 203 45 133 -4 216 -120 204 -75 -8 -162 -57 -256 -146 -69 -65 -78 -71 -72
-46 31 125 -9 203 -99 193 -74 -9 -137 -47 -230 -139 -48 -48 -85 -80 -83 -71
29 95 26 158 -10 190 -31 27 -50 28 -89 2z"/>
</g>
</svg>
